PathFileType	4	(X/Y/Z)	C:/Users/opensim2020/Desktop/walking_exp_matlab/subject01_walking10_straight_01.trc	
DataRate	CameraRate	NumFrames	NumMarkers	Units	OrigDataRate	OrigDataStartFrame	OrigNumFrames	
100.00	100.00	8	43	mm	100.00	1227	349	
Frame#	Time	LFHD			RFHD			LBHD			RBHD			C7			T10			CLAV			STRN			RBAK			LSHO			LUPA			LELB			LFRM			LWRA			LWRB			LFIN			RSHO			RUPA			RELB			RFRM			RWRA			RWRB			RFIN			LASI			RASI			LPSI			RPSI			LTHI			LKNE			LTIB			LANK			LHEE			LTOE			RTHI			RKNE			RTIB			RANK			RHEE			RTOE			*39			*40			*41			*42			
		X1	Y1	Z1	X2	Y2	Z2	X3	Y3	Z3	X4	Y4	Z4	X5	Y5	Z5	X6	Y6	Z6	X7	Y7	Z7	X8	Y8	Z8	X9	Y9	Z9	X10	Y10	Z10	X11	Y11	Z11	X12	Y12	Z12	X13	Y13	Z13	X14	Y14	Z14	X15	Y15	Z15	X16	Y16	Z16	X17	Y17	Z17	X18	Y18	Z18	X19	Y19	Z19	X20	Y20	Z20	X21	Y21	Z21	X22	Y22	Z22	X23	Y23	Z23	X24	Y24	Z24	X25	Y25	Z25	X26	Y26	Z26	X27	Y27	Z27	X28	Y28	Z28	X29	Y29	Z29	X30	Y30	Z30	X31	Y31	Z31	X32	Y32	Z32	X33	Y33	Z33	X34	Y34	Z34	X35	Y35	Z35	X36	Y36	Z36	X37	Y37	Z37	X38	Y38	Z38	X39	Y39	Z39	X40	Y40	Z40	X41	Y41	Z41	X42	Y42	Z42	X43	Y43	Z43	

306	3.050	1380.49341	755.16974	1669.60803	1486.52466	794.86078	1681.11609	1417.92236	653.44312	1606.26855	1530.36365	693.14923	1617.00134	1447.43738	645.59052	1425.98315	1455.12561	612.81885	1133.25171	1441.60535	789.17261	1358.09460	1438.58618	832.73730	1202.21814	1526.87891	593.38782	1232.94824	1283.22168	723.17932	1387.01025	1206.29126	680.89838	1201.41614	1212.56567	661.31445	1051.04480	1189.37561	696.21222	942.13470	1203.53186	775.60602	826.99310	1186.61963	717.95148	821.55957	1176.23608	764.21021	749.98108	1595.83899	732.88983	1386.59290	1700.62048	689.68756	1184.31860	1706.27112	703.33691	1059.03259	1731.64490	757.55853	948.73572	1700.76892	858.36182	852.82397	1745.33044	821.21259	843.92194	1729.58069	871.01978	772.10950	1352.61475	784.64764	924.57831	1570.77087	777.30438	923.16565	1393.97571	596.21655	940.03571	1538.47839	591.93640	947.51465	1289.54419	818.95337	606.00092	1308.97266	843.18719	476.90149	1300.58521	840.29071	289.34714	1349.32910	885.86932	75.67661	1405.75427	852.91620	39.48126	1330.31470	1032.86670	64.09598	1615.37793	671.48022	596.66986	1590.02063	651.34119	437.09262	1588.14404	548.60046	291.83060	1532.56445	463.91385	104.39084	1480.13403	407.79639	81.71555	1533.22278	589.69080	36.37263	1468.02222	771.85944	1711.35974	-3102.05762	1973.44629	1022.98724	-3140.72559	2012.49438	1022.01544			 
307	3.060	1378.21655	760.97278	1669.85535	1484.19885	800.75952	1681.44434	1415.44678	659.07385	1606.66858	1528.03271	699.08887	1617.35181	1445.07617	651.88177	1425.96533	1453.69080	619.96356	1133.06189	1439.48938	795.53656	1358.38293	1436.57751	839.62842	1202.73315	1524.72449	600.01733	1232.66064	1280.94043	729.36859	1386.63733	1204.30042	687.97272	1200.74365	1210.74780	669.32855	1050.46936	1187.67834	703.87201	941.47192	1201.91272	783.20117	826.15271	1184.85632	725.75690	820.85071	1174.69885	772.10175	749.41736	1593.63599	739.10315	1386.62695	1698.44910	695.98352	1184.44531	1703.86792	709.34906	1059.03015	1729.42773	762.87018	948.37946	1698.87964	863.10895	851.85254	1743.11597	825.67810	843.07166	1728.39844	875.43475	771.54773	1350.91614	792.37054	924.66742	1569.01343	785.15594	922.92377	1392.22522	603.97717	940.07294	1536.95740	599.82172	947.19769	1288.98059	826.21411	606.48773	1308.11768	849.93713	477.58197	1300.25854	846.14386	289.68256	1348.66077	888.40973	75.07657	1405.15869	854.56104	40.50361	1330.36865	1035.24780	60.63921	1614.27832	679.16199	596.53552	1589.20837	658.34857	436.88309	1587.72571	553.20923	293.27771	1533.05615	465.77133	106.94260	1480.62402	409.09067	85.33954	1533.29785	589.92218	36.38285	1465.80542	777.77332	1711.80225	-3101.97070	1973.08630	1023.46368	-3140.65234	2012.53003	1022.08081			 
308	3.070	1375.67078	767.16895	1670.22046	1481.69128	806.75427	1681.79504	1413.09473	665.51520	1606.93359	1525.58057	705.06976	1617.79724	1443.07690	658.40979	1426.18152	1452.28149	627.07770	1133.08252	1437.30396	801.96527	1358.87280	1434.48389	846.64923	1203.41284	1522.60498	606.78815	1232.53906	1278.75769	735.62811	1386.48938	1202.40515	695.00946	1200.29712	1209.05957	676.95135	1049.87537	1185.94592	711.72290	940.96930	1200.27051	791.22986	825.89459	1183.11218	733.60681	820.42902	1172.91125	779.86200	748.98444	1591.73328	745.49756	1387.14734	1696.14539	702.33118	1184.73096	1701.46216	715.33319	1059.26038	1727.20129	768.06635	948.33801	1696.97632	867.68164	851.02502	1741.00427	830.02899	842.54535	1727.18042	879.59088	771.11499	1349.09460	800.18542	925.04205	1567.08655	793.21112	922.84698	1390.59436	611.71423	940.41223	1535.64185	607.78387	947.12427	1288.09448	833.06262	607.14667	1307.05103	856.81189	478.48776	1299.07092	852.32068	290.19843	1347.90479	890.84869	75.10985	1404.67603	855.88916	41.22897	1330.57483	1037.19897	57.08626	1612.88318	687.01532	596.57471	1588.36072	665.20679	436.94421	1587.49365	558.38818	295.27740	1533.49707	467.79745	109.95085	1481.18384	410.87112	89.43395	1533.44189	590.31525	36.37454	1463.30884	783.84137	1712.26501	-3101.99170	1973.14087	1023.52020	-3140.71753	2012.55603	1022.02148			 
309	3.080	1373.06018	773.32147	1670.62061	1479.28516	812.81097	1682.36462	1410.62524	671.52545	1607.40051	1523.12537	711.07440	1618.34924	1440.87988	664.79327	1426.36890	1450.80017	634.42340	1133.09448	1435.15332	808.39478	1359.46143	1432.31580	853.70618	1204.20667	1520.59058	613.73895	1232.52161	1276.65381	741.78662	1386.51855	1200.52905	702.16974	1200.10242	1207.30835	684.58795	1049.49573	1184.18774	719.62823	940.76270	1198.80493	798.91168	825.45532	1181.26416	741.50879	820.17706	1171.12207	787.74042	748.74023	1589.57153	751.95160	1387.67249	1693.85291	708.74695	1185.17371	1699.01843	721.34332	1059.76050	1724.78345	773.17310	948.40771	1695.05981	872.09247	850.42426	1738.94849	834.21283	842.25720	1725.95862	883.58191	770.83368	1347.16614	808.03571	925.70435	1565.13220	801.35284	923.03400	1389.11548	619.39948	940.93158	1534.10706	615.92084	947.04529	1286.87622	840.23450	607.99866	1305.89697	863.63757	479.14319	1297.27637	858.33875	290.51855	1347.36682	892.23846	74.49008	1403.92639	856.65460	41.69528	1330.89429	1038.70581	53.84768	1611.74976	695.28204	596.88080	1587.94678	673.06561	437.34549	1586.91980	563.35895	297.24515	1533.97705	469.98120	113.37081	1481.38000	412.85129	93.87011	1533.74805	590.75543	36.56316	1460.62073	789.89166	1712.66467	-3102.02661	1973.10376	1023.35254	-3140.67944	2012.43481	1021.93445			 
310	3.090	1370.64136	779.22760	1671.03906	1476.71216	818.88922	1682.94519	1408.01355	677.30322	1608.01013	1520.68286	717.11572	1619.05090	1438.76855	670.89087	1426.62866	1449.34961	641.72992	1133.21118	1432.92090	814.87872	1360.15796	1430.21252	860.77258	1205.11914	1518.66638	620.80548	1232.61975	1274.49878	747.84393	1386.74048	1198.63171	709.22827	1200.00781	1205.50903	692.51520	1049.45190	1182.39331	727.56470	940.71875	1196.79553	807.00525	825.53326	1179.32446	749.54028	820.19867	1169.33362	795.77142	748.78278	1587.40930	758.50665	1388.35364	1691.51270	715.24243	1185.79761	1696.61182	727.34204	1060.47217	1722.55322	778.24097	948.84705	1693.13550	876.38617	849.95221	1736.96301	838.22864	842.21576	1724.81372	887.39276	770.76160	1345.13513	815.85205	926.61670	1563.04285	809.55920	923.40747	1387.80603	626.27869	941.69543	1532.82727	624.05566	947.23297	1285.28577	847.47205	608.84729	1304.64111	870.68835	479.49814	1295.17480	863.65118	290.48660	1346.90454	893.85437	74.37868	1403.44312	857.50543	42.23195	1331.01355	1039.88000	51.15369	1610.92224	703.93878	597.54034	1587.41565	681.12305	437.36703	1586.31482	568.65723	299.32874	1534.20911	472.48859	116.77502	1481.38257	415.36627	98.65501	1534.02466	591.13605	36.62972	1458.18909	796.04822	1713.37927	-3101.97778	1973.04688	1023.93536	-3140.56274	2012.52942	1022.00427			 
311	3.100	1368.12402	785.35773	1671.62354	1474.17554	824.99384	1683.64868	1405.67273	683.70776	1608.56555	1518.15881	723.16541	1619.83826	1436.68945	677.01917	1426.92212	1447.73657	649.03296	1133.46387	1430.68848	821.39227	1360.99365	1428.10046	867.95587	1206.19019	1516.83533	627.90436	1232.82629	1272.34631	753.87451	1387.10754	1196.81995	716.28259	1200.11169	1203.66589	700.38611	1049.56079	1180.54565	735.61450	941.03326	1195.39380	814.80365	825.62329	1177.41479	757.60364	820.47101	1167.43213	803.82617	749.03101	1585.14294	765.05865	1389.08118	1689.20044	721.67639	1186.53491	1694.22314	733.39777	1061.37866	1720.25916	783.24561	949.40515	1691.15649	880.55072	849.59857	1734.78394	842.10303	842.15100	1723.51636	890.99615	770.60724	1342.95154	823.53577	927.66840	1560.80188	817.74744	923.96399	1386.44287	633.90936	942.33008	1531.34961	632.35406	947.58624	1283.55078	854.62579	609.42938	1303.41858	877.47839	479.49673	1293.23901	868.58868	290.30411	1346.64587	895.64795	74.16446	1403.07727	858.32910	42.73057	1330.83228	1041.10205	49.13050	1609.71289	712.82898	598.05975	1587.29749	690.12152	438.04303	1585.94128	574.56403	301.99170	1534.64417	475.58319	120.78349	1481.57800	418.43689	104.18166	1534.28784	591.57031	36.65716	1455.54895	802.10431	1714.03308	-3101.90479	1973.10217	1023.42920	-3140.64893	2012.55164	1022.11218			 
312	3.110	1365.56946	791.43567	1672.22156	1471.62561	831.13666	1684.46240	1403.20642	689.77063	1609.33276	1515.72473	729.28125	1620.77856	1434.59521	683.22565	1427.33899	1446.06567	656.15613	1133.80432	1428.36304	827.86292	1361.88257	1425.87268	874.96857	1207.25366	1515.10828	634.99323	1233.21326	1270.21973	759.87781	1387.64307	1194.93274	723.31439	1200.32251	1201.90198	708.18677	1049.96924	1178.67090	743.63379	941.48456	1193.56812	822.86359	826.05347	1175.48853	765.67761	820.93011	1165.40271	811.99707	749.50189	1583.02393	771.74683	1390.07056	1686.98743	728.18842	1187.53186	1691.95215	739.50714	1062.49573	1718.04297	788.28967	950.12115	1689.22217	884.67645	849.35883	1732.71912	846.16870	842.39026	1722.16260	894.46594	770.59827	1340.62402	831.11707	928.72241	1558.45190	825.85504	924.71490	1385.02234	641.61346	943.06152	1529.90247	640.55237	948.09460	1281.79309	861.61139	609.77057	1302.21887	884.04602	479.40952	1291.78137	873.20483	290.00784	1346.67297	896.98132	74.01354	1402.80115	859.01422	43.00150	1330.74500	1042.18469	47.35146	1608.50732	722.21362	598.65997	1587.01929	699.70459	438.36151	1585.48352	581.09467	304.92767	1534.92786	478.86136	125.07864	1481.75269	422.28339	110.49807	1534.44702	592.04620	36.73655	1452.79358	808.21393	1714.66821	-3101.72534	1973.21472	1023.59821	-3140.57104	2012.49683	1022.14484			 
313	3.120	1363.28931	797.27167	1672.91736	1469.11243	837.28467	1685.29321	1400.76318	695.92035	1610.20935	1513.22827	735.33948	1621.77832	1432.64478	689.55560	1427.72083	1444.24817	663.45850	1134.22729	1426.08862	834.32581	1362.89417	1423.68616	881.97778	1208.40552	1513.44543	642.09393	1233.69946	1268.06873	765.86237	1388.28833	1193.13159	730.27039	1200.71619	1200.00220	716.10413	1050.40906	1176.75159	751.70667	942.03394	1191.63904	831.03369	826.63708	1173.47485	773.84760	821.53589	1163.38940	820.15027	750.16101	1580.90002	778.41302	1391.14172	1684.85413	734.63519	1188.61694	1689.61829	745.55750	1063.61487	1715.84387	793.30475	950.92896	1687.30957	888.77985	849.19452	1730.79749	850.10956	842.73779	1720.79565	897.88037	770.62231	1338.19873	838.63885	929.77643	1555.99976	833.91107	925.65607	1383.45300	649.35919	943.76221	1528.29578	648.66248	948.69647	1280.04443	868.41382	609.95233	1301.00842	889.91937	479.11078	1290.66113	877.58759	289.80066	1346.71997	898.14783	73.98494	1402.64270	859.50403	43.34800	1331.03345	1043.32837	46.03277	1607.43457	732.26263	599.30524	1587.29517	710.25409	438.95392	1585.17957	588.42389	308.06012	1535.54199	483.15771	130.32231	1481.64392	426.60654	116.88799	1534.24414	592.42993	36.54421	1450.32019	814.44287	1715.66174	-3101.91431	1973.16711	1023.44238	-3140.56445	2012.48059	1022.02411			 
